999
FreeCAD v2024.2 37179 (Git)
  0
SECTION
  2
HEADER
  9
$ACADVER
  1
AC1014
  9
$ACADMAINTVER
 70
     9
  9
$DWGCODEPAGE
  3
ANSI_1252
  9
$TEXTSTYLE
  7
STANDARD
  9
$DIMSTYLE
  2
STANDARD
  9
$DIMTXSTY
  7
STANDARD
  9
$CMLSTYLE
  2
STANDARD
  9
$LUNITS
 70
2
  9
$INSUNITS
 70
4
  9
$PEXTMAX
 10
50
 20
50
 30
50
  9
$PEXTMIN
 10
0
 20
0
 30
0
  9
$HANDSEED
  5
FFFF
  0
ENDSEC
  0
SECTION
  2
CLASSES
  0
CLASS
  1
ACDBDICTIONARYWDFLT
  2
AcDbDictionaryWithDefault
  3
ObjectDBX Classes
 90
        0
280
     0
281
     0
  0
CLASS
  1
XRECORD
  2
AcDbXrecord
  3
ObjectDBX Classes
 90
        0
280
     0
281
     0
  0
CLASS
  1
LWPOLYLINE
  2
AcDbPolyline
  3
ObjectDBX Classes
 90
        0
280
     0
281
     1
  0
ENDSEC
  0
SECTION
  2
TABLES
  0
TABLE
  2
VPORT
  5
20
330
0
100
AcDbSymbolTable
 70
     1
  0
VPORT
  5
21
330
20
100
AcDbSymbolTableRecord
100
AcDbViewportTableRecord
  2
*ACTIVE
 70
     0
  0
ENDTAB
  0
TABLE
  2
LTYPE
  5
22
330
0
100
AcDbSymbolTable
 70
     1
  0
LTYPE
  5
23
330
21
100
AcDbSymbolTableRecord
100
AcDbLinetypeTableRecord
  2
BYBLOCK
 70
     0
  3

 72
    65
 73
     0
 40
0.0
  0
LTYPE
  5
24
330
21
100
AcDbSymbolTableRecord
100
AcDbLinetypeTableRecord
  2
BYLAYER
 70
     0
  3

 72
    65
 73
     0
 40
0.0
  0
LTYPE
  5
25
330
21
100
AcDbSymbolTableRecord
100
AcDbLinetypeTableRecord
  2
CONTINUOUS
 70
     0
  3
Solid line
 72
    65
 73
     0
 40
0.0
  0
ENDTAB
  0
TABLE
  2
LAYER
  5
B35
330
0
100
AcDbSymbolTable
 70
3
  0
LAYER
  5
B36
330
B35
100
AcDbSymbolTableRecord
100
AcDbLayerTableRecord
  2
0
 70
   0
 62
   7
  6
CONTINUOUS
  0
LAYER
  5
B37
330
B35
100
AcDbSymbolTableRecord
100
AcDbLayerTableRecord
  2
none
 70
    0
 62
    7
  6
CONTINUOUS
  0
LAYER
  5
B38
330
B35
100
AcDbSymbolTableRecord
100
AcDbLayerTableRecord
  2
Shape2DView
 70
    0
 62
    7
  6
CONTINUOUS
  0
ENDTAB
  0
TABLE
  2
STYLE
  5
70
330
0
100
AcDbSymbolTable
 70
     2
  0
STYLE
  5
71
330
70
100
AcDbSymbolTableRecord
100
AcDbTextStyleTableRecord
  2
STANDARD
 70
     0
 40
0.0
 41
1.0
 50
0.0
 71
     0
 42
2.5
  3
arial.ttf
  4

  0
STYLE
  5
72
330
70
100
AcDbSymbolTableRecord
100
AcDbTextStyleTableRecord
  2
ANNOTATIVE
 70
     0
 40
0.0
 41
1.0
 50
0.0
 71
     0
 42
2.5
  3
arial.ttf
  4

  0
ENDTAB
  0
TABLE
  2
VIEW
  5
73
330
0
100
AcDbSymbolTable
 70
     0
  0
ENDTAB
  0
TABLE
  2
UCS
  5
74
330
0
100
AcDbSymbolTable
 70
     0
  0
ENDTAB
  0
TABLE
  2
APPID
  5
75
330
0
100
AcDbSymbolTable
 70
     2
  0
APPID
  5
76
330
75
100
AcDbSymbolTableRecord
100
AcDbRegAppTableRecord
  2
ACAD
 70
     0
  0
APPID
  5
77
330
75
100
AcDbSymbolTableRecord
100
AcDbRegAppTableRecord
  2
ACADANNOTATIVE
 70
     0
  0
ENDTAB
  0
TABLE
  2
DIMSTYLE
  5
78
330
0
100
AcDbSymbolTable
 70
     2
  0
DIMSTYLE
105
79
330
78
100
AcDbSymbolTableRecord
100
AcDbDimStyleTableRecord
  2
STANDARD
 70
     0
  3

  4

  5

  6

  7

 40
0.0
 41
2.5
 42
0.625
 43
3.75
 44
1.25
 45
0.0
 46
0.0
 47
0.0
 48
0.0
140
2.5
141
2.5
142
0.0
143
0.03937007874016
144
1.0
145
0.0
146
1.0
147
0.625
 71
     0
 72
     0
 73
     0
 74
     0
 75
     0
 76
     0
 77
     1
 78
     8
170
     0
171
     3
172
     1
173
     0
174
     0
175
     0
176
     0
177
     0
178
     0
270
     2
271
     2
272
     2
273
     2
274
     3
340
71
275
     0
280
     0
281
     0
282
     0
283
     0
284
     8
285
     0
286
     0
287
     3
288
     0
  0
ENDTAB
  0
TABLE
  2
BLOCK_RECORD
  5
A01
330
0
100
AcDbSymbolTable
  70
5
  0
BLOCK_RECORD
  5
A02
330
A01
100
AcDbSymbolTableRecord
100
AcDbBlockTableRecord
  2
*MODEL_SPACE
  0
BLOCK_RECORD
  5
A03
330
A01
100
AcDbSymbolTableRecord
100
AcDbBlockTableRecord
  2
*PAPER_SPACE
  0
ENDTAB
  0
ENDSEC
  0
SECTION
  2
BLOCKS
  0
BLOCK
  5
A04
330
A02
100
AcDbEntity
  8
0
100
AcDbBlockBegin
  2
*MODEL_SPACE
 70
   0
 10
0
 20
0
 30
0
  3
*MODEL_SPACE
  1
 
  0
ENDBLK
  5
A05
330
A02
100
AcDbEntity
  8
0
100
AcDbBlockEnd
  0
BLOCK
  5
A06
330
A03
100
AcDbEntity
 67
1
  8
0
100
AcDbBlockBegin
  2
*PAPER_SPACE
 70
   0
 10
0
 20
0
 30
0
  3
*PAPER_SPACE
  1
 
  0
ENDBLK
  5
A07
330
A03
100
AcDbEntity
 67
    1
  8
0
100
AcDbBlockEnd
  0
ENDSEC
  0
SECTION
  2
ENTITIES
  0
LINE
  5
A08
330
A02
100
AcDbEntity
  8
Shape2DView
100
AcDbLine
 10
283.584630000
 20
-0.620357000
 30
0.000000000
 11
283.863465000
 21
-0.681014000
 31
0.000000000
  0
LINE
  5
A09
330
A02
100
AcDbEntity
  8
Shape2DView
100
AcDbLine
 10
283.300000000
 20
-0.600000000
 30
0.000000000
 11
283.584630000
 21
-0.620357000
 31
0.000000000
  0
LINE
  5
A0A
330
A02
100
AcDbEntity
  8
Shape2DView
100
AcDbLine
 10
283.863465000
 20
-0.681014000
 30
0.000000000
 11
284.130830000
 21
-0.780736000
 31
0.000000000
  0
LINE
  5
A0B
330
A02
100
AcDbEntity
  8
Shape2DView
100
AcDbLine
 10
284.130830000
 20
-0.780736000
 30
0.000000000
 11
284.381282000
 21
-0.917493000
 31
0.000000000
  0
LINE
  5
A0C
330
A02
100
AcDbEntity
  8
Shape2DView
100
AcDbLine
 10
284.381282000
 20
-0.917493000
 30
0.000000000
 11
284.609721000
 21
-1.088501000
 31
0.000000000
  0
LINE
  5
A0D
330
A02
100
AcDbEntity
  8
Shape2DView
100
AcDbLine
 10
284.609721000
 20
-1.088501000
 30
0.000000000
 11
284.811499000
 21
-1.290279000
 31
0.000000000
  0
LINE
  5
A0E
330
A02
100
AcDbEntity
  8
Shape2DView
100
AcDbLine
 10
284.811499000
 20
-1.290279000
 30
0.000000000
 11
284.982507000
 21
-1.518718000
 31
0.000000000
  0
LINE
  5
A0F
330
A02
100
AcDbEntity
  8
Shape2DView
100
AcDbLine
 10
284.982507000
 20
-1.518718000
 30
0.000000000
 11
285.119264000
 21
-1.769170000
 31
0.000000000
  0
LINE
  5
A10
330
A02
100
AcDbEntity
  8
Shape2DView
100
AcDbLine
 10
285.119264000
 20
-1.769170000
 30
0.000000000
 11
285.218986000
 21
-2.036535000
 31
0.000000000
  0
LINE
  5
A11
330
A02
100
AcDbEntity
  8
Shape2DView
100
AcDbLine
 10
285.218986000
 20
-2.036535000
 30
0.000000000
 11
285.279643000
 21
-2.315370000
 31
0.000000000
  0
LINE
  5
A12
330
A02
100
AcDbEntity
  8
Shape2DView
100
AcDbLine
 10
285.279643000
 20
-2.315370000
 30
0.000000000
 11
285.300000000
 21
-2.600000000
 31
0.000000000
  0
LINE
  5
A13
330
A02
100
AcDbEntity
  8
Shape2DView
100
AcDbLine
 10
285.300000000
 20
-2.600000000
 30
0.000000000
 11
285.300000000
 21
-55.600000000
 31
0.000000000
  0
LINE
  5
A14
330
A02
100
AcDbEntity
  8
Shape2DView
100
AcDbLine
 10
285.300000000
 20
-55.600000000
 30
0.000000000
 11
280.450000000
 21
-55.600000000
 31
0.000000000
  0
LINE
  5
A15
330
A02
100
AcDbEntity
  8
Shape2DView
100
AcDbLine
 10
280.450000000
 20
-55.600000000
 30
0.000000000
 11
280.450000000
 21
-58.100000000
 31
0.000000000
  0
LINE
  5
A16
330
A02
100
AcDbEntity
  8
Shape2DView
100
AcDbLine
 10
280.450000000
 20
-58.100000000
 30
0.000000000
 11
285.300000000
 21
-58.100000000
 31
0.000000000
  0
LINE
  5
A17
330
A02
100
AcDbEntity
  8
Shape2DView
100
AcDbLine
 10
285.300000000
 20
-58.100000000
 30
0.000000000
 11
285.300000000
 21
-93.200000000
 31
0.000000000
  0
LINE
  5
A18
330
A02
100
AcDbEntity
  8
Shape2DView
100
AcDbLine
 10
285.300000000
 20
-93.200000000
 30
0.000000000
 11
285.279643000
 21
-93.484630000
 31
0.000000000
  0
LINE
  5
A19
330
A02
100
AcDbEntity
  8
Shape2DView
100
AcDbLine
 10
285.279643000
 20
-93.484630000
 30
0.000000000
 11
285.218986000
 21
-93.763465000
 31
0.000000000
  0
LINE
  5
A1A
330
A02
100
AcDbEntity
  8
Shape2DView
100
AcDbLine
 10
285.218986000
 20
-93.763465000
 30
0.000000000
 11
285.119264000
 21
-94.030830000
 31
0.000000000
  0
LINE
  5
A1B
330
A02
100
AcDbEntity
  8
Shape2DView
100
AcDbLine
 10
285.119264000
 20
-94.030830000
 30
0.000000000
 11
284.982507000
 21
-94.281282000
 31
0.000000000
  0
LINE
  5
A1C
330
A02
100
AcDbEntity
  8
Shape2DView
100
AcDbLine
 10
284.982507000
 20
-94.281282000
 30
0.000000000
 11
284.811499000
 21
-94.509721000
 31
0.000000000
  0
LINE
  5
A1D
330
A02
100
AcDbEntity
  8
Shape2DView
100
AcDbLine
 10
284.811499000
 20
-94.509721000
 30
0.000000000
 11
284.609721000
 21
-94.711499000
 31
0.000000000
  0
LINE
  5
A1E
330
A02
100
AcDbEntity
  8
Shape2DView
100
AcDbLine
 10
284.609721000
 20
-94.711499000
 30
0.000000000
 11
284.381282000
 21
-94.882507000
 31
0.000000000
  0
LINE
  5
A1F
330
A02
100
AcDbEntity
  8
Shape2DView
100
AcDbLine
 10
284.381282000
 20
-94.882507000
 30
0.000000000
 11
284.130830000
 21
-95.019264000
 31
0.000000000
  0
LINE
  5
A20
330
A02
100
AcDbEntity
  8
Shape2DView
100
AcDbLine
 10
284.130830000
 20
-95.019264000
 30
0.000000000
 11
283.863465000
 21
-95.118986000
 31
0.000000000
  0
LINE
  5
A21
330
A02
100
AcDbEntity
  8
Shape2DView
100
AcDbLine
 10
283.863465000
 20
-95.118986000
 30
0.000000000
 11
283.584630000
 21
-95.179643000
 31
0.000000000
  0
LINE
  5
A22
330
A02
100
AcDbEntity
  8
Shape2DView
100
AcDbLine
 10
283.584630000
 20
-95.179643000
 30
0.000000000
 11
283.300000000
 21
-95.200000000
 31
0.000000000
  0
LINE
  5
A23
330
A02
100
AcDbEntity
  8
Shape2DView
100
AcDbLine
 10
283.300000000
 20
-95.200000000
 30
0.000000000
 11
2.300000000
 21
-95.200000000
 31
0.000000000
  0
LINE
  5
A24
330
A02
100
AcDbEntity
  8
Shape2DView
100
AcDbLine
 10
2.300000000
 20
-95.200000000
 30
0.000000000
 11
2.015370000
 21
-95.179643000
 31
0.000000000
  0
LINE
  5
A25
330
A02
100
AcDbEntity
  8
Shape2DView
100
AcDbLine
 10
2.015370000
 20
-95.179643000
 30
0.000000000
 11
1.736535000
 21
-95.118986000
 31
0.000000000
  0
LINE
  5
A26
330
A02
100
AcDbEntity
  8
Shape2DView
100
AcDbLine
 10
1.736535000
 20
-95.118986000
 30
0.000000000
 11
1.469170000
 21
-95.019264000
 31
0.000000000
  0
LINE
  5
A27
330
A02
100
AcDbEntity
  8
Shape2DView
100
AcDbLine
 10
1.469170000
 20
-95.019264000
 30
0.000000000
 11
1.218718000
 21
-94.882507000
 31
0.000000000
  0
LINE
  5
A28
330
A02
100
AcDbEntity
  8
Shape2DView
100
AcDbLine
 10
1.218718000
 20
-94.882507000
 30
0.000000000
 11
0.990279000
 21
-94.711499000
 31
0.000000000
  0
LINE
  5
A29
330
A02
100
AcDbEntity
  8
Shape2DView
100
AcDbLine
 10
0.990279000
 20
-94.711499000
 30
0.000000000
 11
0.788501000
 21
-94.509721000
 31
0.000000000
  0
LINE
  5
A2A
330
A02
100
AcDbEntity
  8
Shape2DView
100
AcDbLine
 10
0.788501000
 20
-94.509721000
 30
0.000000000
 11
0.617493000
 21
-94.281282000
 31
0.000000000
  0
LINE
  5
A2B
330
A02
100
AcDbEntity
  8
Shape2DView
100
AcDbLine
 10
0.617493000
 20
-94.281282000
 30
0.000000000
 11
0.480736000
 21
-94.030830000
 31
0.000000000
  0
LINE
  5
A2C
330
A02
100
AcDbEntity
  8
Shape2DView
100
AcDbLine
 10
0.480736000
 20
-94.030830000
 30
0.000000000
 11
0.381014000
 21
-93.763465000
 31
0.000000000
  0
LINE
  5
A2D
330
A02
100
AcDbEntity
  8
Shape2DView
100
AcDbLine
 10
0.381014000
 20
-93.763465000
 30
0.000000000
 11
0.320357000
 21
-93.484630000
 31
0.000000000
  0
LINE
  5
A2E
330
A02
100
AcDbEntity
  8
Shape2DView
100
AcDbLine
 10
0.320357000
 20
-93.484630000
 30
0.000000000
 11
0.300000000
 21
-93.200000000
 31
0.000000000
  0
LINE
  5
A2F
330
A02
100
AcDbEntity
  8
Shape2DView
100
AcDbLine
 10
0.300000000
 20
-93.200000000
 30
0.000000000
 11
0.300000000
 21
-58.100000000
 31
0.000000000
  0
LINE
  5
A30
330
A02
100
AcDbEntity
  8
Shape2DView
100
AcDbLine
 10
0.300000000
 20
-58.100000000
 30
0.000000000
 11
5.300000000
 21
-58.100000000
 31
0.000000000
  0
LINE
  5
A31
330
A02
100
AcDbEntity
  8
Shape2DView
100
AcDbLine
 10
5.300000000
 20
-58.100000000
 30
0.000000000
 11
5.300000000
 21
-55.600000000
 31
0.000000000
  0
LINE
  5
A32
330
A02
100
AcDbEntity
  8
Shape2DView
100
AcDbLine
 10
5.300000000
 20
-55.600000000
 30
0.000000000
 11
0.300000000
 21
-55.600000000
 31
0.000000000
  0
LINE
  5
A33
330
A02
100
AcDbEntity
  8
Shape2DView
100
AcDbLine
 10
0.300000000
 20
-55.600000000
 30
0.000000000
 11
0.300000000
 21
-2.600000000
 31
0.000000000
  0
LINE
  5
A34
330
A02
100
AcDbEntity
  8
Shape2DView
100
AcDbLine
 10
0.300000000
 20
-2.600000000
 30
0.000000000
 11
0.320357000
 21
-2.315370000
 31
0.000000000
  0
LINE
  5
A35
330
A02
100
AcDbEntity
  8
Shape2DView
100
AcDbLine
 10
0.320357000
 20
-2.315370000
 30
0.000000000
 11
0.381014000
 21
-2.036535000
 31
0.000000000
  0
LINE
  5
A36
330
A02
100
AcDbEntity
  8
Shape2DView
100
AcDbLine
 10
0.381014000
 20
-2.036535000
 30
0.000000000
 11
0.480736000
 21
-1.769170000
 31
0.000000000
  0
LINE
  5
A37
330
A02
100
AcDbEntity
  8
Shape2DView
100
AcDbLine
 10
0.480736000
 20
-1.769170000
 30
0.000000000
 11
0.617493000
 21
-1.518718000
 31
0.000000000
  0
LINE
  5
A38
330
A02
100
AcDbEntity
  8
Shape2DView
100
AcDbLine
 10
0.617493000
 20
-1.518718000
 30
0.000000000
 11
0.788501000
 21
-1.290279000
 31
0.000000000
  0
LINE
  5
A39
330
A02
100
AcDbEntity
  8
Shape2DView
100
AcDbLine
 10
0.788501000
 20
-1.290279000
 30
0.000000000
 11
0.990279000
 21
-1.088501000
 31
0.000000000
  0
LINE
  5
A3A
330
A02
100
AcDbEntity
  8
Shape2DView
100
AcDbLine
 10
0.990279000
 20
-1.088501000
 30
0.000000000
 11
1.218718000
 21
-0.917493000
 31
0.000000000
  0
LINE
  5
A3B
330
A02
100
AcDbEntity
  8
Shape2DView
100
AcDbLine
 10
1.218718000
 20
-0.917493000
 30
0.000000000
 11
1.469170000
 21
-0.780736000
 31
0.000000000
  0
LINE
  5
A3C
330
A02
100
AcDbEntity
  8
Shape2DView
100
AcDbLine
 10
1.469170000
 20
-0.780736000
 30
0.000000000
 11
1.736535000
 21
-0.681014000
 31
0.000000000
  0
LINE
  5
A3D
330
A02
100
AcDbEntity
  8
Shape2DView
100
AcDbLine
 10
1.736535000
 20
-0.681014000
 30
0.000000000
 11
2.015370000
 21
-0.620357000
 31
0.000000000
  0
LINE
  5
A3E
330
A02
100
AcDbEntity
  8
Shape2DView
100
AcDbLine
 10
2.015370000
 20
-0.620357000
 30
0.000000000
 11
2.300000000
 21
-0.600000000
 31
0.000000000
  0
LINE
  5
A3F
330
A02
100
AcDbEntity
  8
Shape2DView
100
AcDbLine
 10
2.300000000
 20
-0.600000000
 30
0.000000000
 11
283.300000000
 21
-0.600000000
 31
0.000000000
  0
CIRCLE
  5
A40
330
A02
100
AcDbEntity
  8
Shape2DView
100
AcDbCircle
 10
281.305000000
 20
-85.725000000
 30
0.000000000
 40
0.900000000
  0
CIRCLE
  5
A41
330
A02
100
AcDbEntity
  8
Shape2DView
100
AcDbCircle
 10
276.225000000
 20
-85.725000000
 30
0.000000000
 40
2.000000000
  0
CIRCLE
  5
A42
330
A02
100
AcDbEntity
  8
Shape2DView
100
AcDbCircle
 10
271.145000000
 20
-85.725000000
 30
0.000000000
 40
0.900000000
  0
CIRCLE
  5
A43
330
A02
100
AcDbEntity
  8
Shape2DView
100
AcDbCircle
 10
262.255000000
 20
-85.725000000
 30
0.000000000
 40
0.900000000
  0
CIRCLE
  5
A44
330
A02
100
AcDbEntity
  8
Shape2DView
100
AcDbCircle
 10
257.175000000
 20
-85.725000000
 30
0.000000000
 40
2.000000000
  0
CIRCLE
  5
A45
330
A02
100
AcDbEntity
  8
Shape2DView
100
AcDbCircle
 10
252.095000000
 20
-85.725000000
 30
0.000000000
 40
0.900000000
  0
CIRCLE
  5
A46
330
A02
100
AcDbEntity
  8
Shape2DView
100
AcDbCircle
 10
243.205000000
 20
-85.725000000
 30
0.000000000
 40
0.900000000
  0
CIRCLE
  5
A47
330
A02
100
AcDbEntity
  8
Shape2DView
100
AcDbCircle
 10
238.125000000
 20
-85.725000000
 30
0.000000000
 40
2.000000000
  0
CIRCLE
  5
A48
330
A02
100
AcDbEntity
  8
Shape2DView
100
AcDbCircle
 10
233.045000000
 20
-85.725000000
 30
0.000000000
 40
0.900000000
  0
CIRCLE
  5
A49
330
A02
100
AcDbEntity
  8
Shape2DView
100
AcDbCircle
 10
221.773750000
 20
-85.725000000
 30
0.000000000
 40
0.900000000
  0
CIRCLE
  5
A4A
330
A02
100
AcDbEntity
  8
Shape2DView
100
AcDbCircle
 10
216.693750000
 20
-85.725000000
 30
0.000000000
 40
2.000000000
  0
CIRCLE
  5
A4B
330
A02
100
AcDbEntity
  8
Shape2DView
100
AcDbCircle
 10
211.613750000
 20
-85.725000000
 30
0.000000000
 40
0.900000000
  0
CIRCLE
  5
A4C
330
A02
100
AcDbEntity
  8
Shape2DView
100
AcDbCircle
 10
197.961250000
 20
-85.725000000
 30
0.000000000
 40
0.900000000
  0
CIRCLE
  5
A4D
330
A02
100
AcDbEntity
  8
Shape2DView
100
AcDbCircle
 10
192.881250000
 20
-85.725000000
 30
0.000000000
 40
2.000000000
  0
CIRCLE
  5
A4E
330
A02
100
AcDbEntity
  8
Shape2DView
100
AcDbCircle
 10
187.801250000
 20
-85.725000000
 30
0.000000000
 40
0.900000000
  0
CIRCLE
  5
A4F
330
A02
100
AcDbEntity
  8
Shape2DView
100
AcDbCircle
 10
147.637500000
 20
-92.710000000
 30
0.000000000
 40
1.700000000
  0
CIRCLE
  5
A50
330
A02
100
AcDbEntity
  8
Shape2DView
100
AcDbCircle
 10
174.148750000
 20
-85.725000000
 30
0.000000000
 40
0.900000000
  0
CIRCLE
  5
A51
330
A02
100
AcDbEntity
  8
Shape2DView
100
AcDbCircle
 10
169.068750000
 20
-85.725000000
 30
0.000000000
 40
2.000000000
  0
CIRCLE
  5
A52
330
A02
100
AcDbEntity
  8
Shape2DView
100
AcDbCircle
 10
163.988750000
 20
-85.725000000
 30
0.000000000
 40
0.900000000
  0
CIRCLE
  5
A53
330
A02
100
AcDbEntity
  8
Shape2DView
100
AcDbCircle
 10
147.637500000
 20
-77.470000000
 30
0.000000000
 40
2.000000000
  0
CIRCLE
  5
A54
330
A02
100
AcDbEntity
  8
Shape2DView
100
AcDbCircle
 10
281.305000000
 20
-66.675000000
 30
0.000000000
 40
0.900000000
  0
CIRCLE
  5
A55
330
A02
100
AcDbEntity
  8
Shape2DView
100
AcDbCircle
 10
276.225000000
 20
-66.675000000
 30
0.000000000
 40
2.000000000
  0
CIRCLE
  5
A56
330
A02
100
AcDbEntity
  8
Shape2DView
100
AcDbCircle
 10
271.145000000
 20
-66.675000000
 30
0.000000000
 40
0.900000000
  0
CIRCLE
  5
A57
330
A02
100
AcDbEntity
  8
Shape2DView
100
AcDbCircle
 10
262.255000000
 20
-66.675000000
 30
0.000000000
 40
0.900000000
  0
CIRCLE
  5
A58
330
A02
100
AcDbEntity
  8
Shape2DView
100
AcDbCircle
 10
257.175000000
 20
-66.675000000
 30
0.000000000
 40
2.000000000
  0
CIRCLE
  5
A59
330
A02
100
AcDbEntity
  8
Shape2DView
100
AcDbCircle
 10
252.095000000
 20
-66.675000000
 30
0.000000000
 40
0.900000000
  0
CIRCLE
  5
A5A
330
A02
100
AcDbEntity
  8
Shape2DView
100
AcDbCircle
 10
243.205000000
 20
-66.675000000
 30
0.000000000
 40
0.900000000
  0
CIRCLE
  5
A5B
330
A02
100
AcDbEntity
  8
Shape2DView
100
AcDbCircle
 10
238.125000000
 20
-66.675000000
 30
0.000000000
 40
2.000000000
  0
CIRCLE
  5
A5C
330
A02
100
AcDbEntity
  8
Shape2DView
100
AcDbCircle
 10
233.045000000
 20
-66.675000000
 30
0.000000000
 40
0.900000000
  0
CIRCLE
  5
A5D
330
A02
100
AcDbEntity
  8
Shape2DView
100
AcDbCircle
 10
224.155000000
 20
-66.675000000
 30
0.000000000
 40
0.900000000
  0
CIRCLE
  5
A5E
330
A02
100
AcDbEntity
  8
Shape2DView
100
AcDbCircle
 10
219.075000000
 20
-66.675000000
 30
0.000000000
 40
2.000000000
  0
CIRCLE
  5
A5F
330
A02
100
AcDbEntity
  8
Shape2DView
100
AcDbCircle
 10
213.995000000
 20
-66.675000000
 30
0.000000000
 40
0.900000000
  0
CIRCLE
  5
A60
330
A02
100
AcDbEntity
  8
Shape2DView
100
AcDbCircle
 10
276.225000000
 20
-55.880000000
 30
0.000000000
 40
2.000000000
  0
CIRCLE
  5
A61
330
A02
100
AcDbEntity
  8
Shape2DView
100
AcDbCircle
 10
252.412500000
 20
-55.880000000
 30
0.000000000
 40
2.000000000
  0
CIRCLE
  5
A62
330
A02
100
AcDbEntity
  8
Shape2DView
100
AcDbCircle
 10
282.098750000
 20
-50.006250000
 30
0.000000000
 40
2.000000000
  0
CIRCLE
  5
A63
330
A02
100
AcDbEntity
  8
Shape2DView
100
AcDbCircle
 10
269.398750000
 20
-47.700000000
 30
0.000000000
 40
0.900000000
  0
ARC
  5
A64
330
A02
100
AcDbEntity
  8
Shape2DView
100
AcDbCircle
 10
266.858750000
 20
-50.006250000
 30
0.000000000
 40
1.700000000
100
AcDbArc
 50
161.711409374
 51
0.000000000
  0
ARC
  5
A65
330
A02
100
AcDbEntity
  8
Shape2DView
100
AcDbCircle
 10
266.858750000
 20
-50.006250000
 30
0.000000000
 40
1.700000000
100
AcDbArc
 50
0.000000000
 51
113.811424579
  0
ARC
  5
A66
330
A02
100
AcDbEntity
  8
Shape2DView
100
AcDbCircle
 10
264.318750000
 20
-47.700000000
 30
0.000000000
 40
2.000000000
100
AcDbArc
 50
-22.053840283
 51
0.000000000
  0
ARC
  5
A67
330
A02
100
AcDbEntity
  8
Shape2DView
100
AcDbCircle
 10
264.318750000
 20
-47.700000000
 30
0.000000000
 40
2.000000000
100
AcDbArc
 50
0.000000000
 51
-62.423325763
  0
ARC
  5
A68
330
A02
100
AcDbEntity
  8
Shape2DView
100
AcDbCircle
 10
259.238750000
 20
-47.700000000
 30
0.000000000
 40
0.900000000
100
AcDbArc
 50
0.000000000
 51
163.716458617
  0
ARC
  5
A69
330
A02
100
AcDbEntity
  8
Shape2DView
100
AcDbCircle
 10
257.492500000
 20
-47.625000000
 30
0.000000000
 40
0.900000000
100
AcDbArc
 50
11.364951097
 51
-16.283541382
  0
ARC
  5
A6A
330
A02
100
AcDbEntity
  8
Shape2DView
100
AcDbCircle
 10
259.238750000
 20
-47.700000000
 30
0.000000000
 40
0.900000000
100
AcDbArc
 50
-168.635048904
 51
0.000000000
  0
CIRCLE
  5
A6B
330
A02
100
AcDbEntity
  8
Shape2DView
100
AcDbCircle
 10
205.105000000
 20
-66.675000000
 30
0.000000000
 40
0.900000000
  0
CIRCLE
  5
A6C
330
A02
100
AcDbEntity
  8
Shape2DView
100
AcDbCircle
 10
200.025000000
 20
-66.675000000
 30
0.000000000
 40
2.000000000
  0
CIRCLE
  5
A6D
330
A02
100
AcDbEntity
  8
Shape2DView
100
AcDbCircle
 10
194.945000000
 20
-66.675000000
 30
0.000000000
 40
0.900000000
  0
CIRCLE
  5
A6E
330
A02
100
AcDbEntity
  8
Shape2DView
100
AcDbCircle
 10
186.055000000
 20
-66.675000000
 30
0.000000000
 40
0.900000000
  0
CIRCLE
  5
A6F
330
A02
100
AcDbEntity
  8
Shape2DView
100
AcDbCircle
 10
180.975000000
 20
-66.675000000
 30
0.000000000
 40
2.000000000
  0
CIRCLE
  5
A70
330
A02
100
AcDbEntity
  8
Shape2DView
100
AcDbCircle
 10
175.895000000
 20
-66.675000000
 30
0.000000000
 40
0.900000000
  0
CIRCLE
  5
A71
330
A02
100
AcDbEntity
  8
Shape2DView
100
AcDbCircle
 10
167.005000000
 20
-66.675000000
 30
0.000000000
 40
0.900000000
  0
CIRCLE
  5
A72
330
A02
100
AcDbEntity
  8
Shape2DView
100
AcDbCircle
 10
161.925000000
 20
-66.675000000
 30
0.000000000
 40
2.000000000
  0
CIRCLE
  5
A73
330
A02
100
AcDbEntity
  8
Shape2DView
100
AcDbCircle
 10
156.845000000
 20
-66.675000000
 30
0.000000000
 40
0.900000000
  0
CIRCLE
  5
A74
330
A02
100
AcDbEntity
  8
Shape2DView
100
AcDbCircle
 10
147.955000000
 20
-66.675000000
 30
0.000000000
 40
0.900000000
  0
CIRCLE
  5
A75
330
A02
100
AcDbEntity
  8
Shape2DView
100
AcDbCircle
 10
140.493750000
 20
-92.710000000
 30
0.000000000
 40
1.700000000
  0
CIRCLE
  5
A76
330
A02
100
AcDbEntity
  8
Shape2DView
100
AcDbCircle
 10
116.681250000
 20
-92.710000000
 30
0.000000000
 40
1.700000000
  0
CIRCLE
  5
A77
330
A02
100
AcDbEntity
  8
Shape2DView
100
AcDbCircle
 10
109.537500000
 20
-92.710000000
 30
0.000000000
 40
1.700000000
  0
CIRCLE
  5
A78
330
A02
100
AcDbEntity
  8
Shape2DView
100
AcDbCircle
 10
133.667500000
 20
-85.725000000
 30
0.000000000
 40
0.900000000
  0
CIRCLE
  5
A79
330
A02
100
AcDbEntity
  8
Shape2DView
100
AcDbCircle
 10
128.587500000
 20
-85.725000000
 30
0.000000000
 40
2.000000000
  0
CIRCLE
  5
A7A
330
A02
100
AcDbEntity
  8
Shape2DView
100
AcDbCircle
 10
123.507500000
 20
-85.725000000
 30
0.000000000
 40
0.900000000
  0
CIRCLE
  5
A7B
330
A02
100
AcDbEntity
  8
Shape2DView
100
AcDbCircle
 10
93.186250000
 20
-85.725000000
 30
0.000000000
 40
0.900000000
  0
CIRCLE
  5
A7C
330
A02
100
AcDbEntity
  8
Shape2DView
100
AcDbCircle
 10
88.106250000
 20
-85.725000000
 30
0.000000000
 40
2.000000000
  0
CIRCLE
  5
A7D
330
A02
100
AcDbEntity
  8
Shape2DView
100
AcDbCircle
 10
83.026250000
 20
-85.725000000
 30
0.000000000
 40
0.900000000
  0
CIRCLE
  5
A7E
330
A02
100
AcDbEntity
  8
Shape2DView
100
AcDbCircle
 10
140.493750000
 20
-77.470000000
 30
0.000000000
 40
2.000000000
  0
CIRCLE
  5
A7F
330
A02
100
AcDbEntity
  8
Shape2DView
100
AcDbCircle
 10
116.681250000
 20
-77.470000000
 30
0.000000000
 40
2.000000000
  0
CIRCLE
  5
A80
330
A02
100
AcDbEntity
  8
Shape2DView
100
AcDbCircle
 10
109.537500000
 20
-77.470000000
 30
0.000000000
 40
2.000000000
  0
CIRCLE
  5
A81
330
A02
100
AcDbEntity
  8
Shape2DView
100
AcDbCircle
 10
69.373750000
 20
-85.725000000
 30
0.000000000
 40
0.900000000
  0
CIRCLE
  5
A82
330
A02
100
AcDbEntity
  8
Shape2DView
100
AcDbCircle
 10
64.293750000
 20
-85.725000000
 30
0.000000000
 40
2.000000000
  0
CIRCLE
  5
A83
330
A02
100
AcDbEntity
  8
Shape2DView
100
AcDbCircle
 10
59.213750000
 20
-85.725000000
 30
0.000000000
 40
0.900000000
  0
CIRCLE
  5
A84
330
A02
100
AcDbEntity
  8
Shape2DView
100
AcDbCircle
 10
45.561250000
 20
-85.725000000
 30
0.000000000
 40
0.900000000
  0
CIRCLE
  5
A85
330
A02
100
AcDbEntity
  8
Shape2DView
100
AcDbCircle
 10
40.481250000
 20
-85.725000000
 30
0.000000000
 40
2.000000000
  0
CIRCLE
  5
A86
330
A02
100
AcDbEntity
  8
Shape2DView
100
AcDbCircle
 10
35.401250000
 20
-85.725000000
 30
0.000000000
 40
0.900000000
  0
CIRCLE
  5
A87
330
A02
100
AcDbEntity
  8
Shape2DView
100
AcDbCircle
 10
19.367500000
 20
-85.725000000
 30
0.000000000
 40
0.900000000
  0
CIRCLE
  5
A88
330
A02
100
AcDbEntity
  8
Shape2DView
100
AcDbCircle
 10
14.287500000
 20
-85.725000000
 30
0.000000000
 40
2.000000000
  0
CIRCLE
  5
A89
330
A02
100
AcDbEntity
  8
Shape2DView
100
AcDbCircle
 10
9.207500000
 20
-85.725000000
 30
0.000000000
 40
0.900000000
  0
CIRCLE
  5
A8A
330
A02
100
AcDbEntity
  8
Shape2DView
100
AcDbCircle
 10
30.956250000
 20
-74.930000000
 30
0.000000000
 40
2.000000000
  0
CIRCLE
  5
A8B
330
A02
100
AcDbEntity
  8
Shape2DView
100
AcDbCircle
 10
7.143750000
 20
-74.930000000
 30
0.000000000
 40
2.000000000
  0
CIRCLE
  5
A8C
330
A02
100
AcDbEntity
  8
Shape2DView
100
AcDbCircle
 10
142.875000000
 20
-66.675000000
 30
0.000000000
 40
2.000000000
  0
CIRCLE
  5
A8D
330
A02
100
AcDbEntity
  8
Shape2DView
100
AcDbCircle
 10
137.795000000
 20
-66.675000000
 30
0.000000000
 40
0.900000000
  0
CIRCLE
  5
A8E
330
A02
100
AcDbEntity
  8
Shape2DView
100
AcDbCircle
 10
128.905000000
 20
-66.675000000
 30
0.000000000
 40
0.900000000
  0
CIRCLE
  5
A8F
330
A02
100
AcDbEntity
  8
Shape2DView
100
AcDbCircle
 10
123.825000000
 20
-66.675000000
 30
0.000000000
 40
2.000000000
  0
CIRCLE
  5
A90
330
A02
100
AcDbEntity
  8
Shape2DView
100
AcDbCircle
 10
118.745000000
 20
-66.675000000
 30
0.000000000
 40
0.900000000
  0
CIRCLE
  5
A91
330
A02
100
AcDbEntity
  8
Shape2DView
100
AcDbCircle
 10
109.855000000
 20
-66.675000000
 30
0.000000000
 40
0.900000000
  0
CIRCLE
  5
A92
330
A02
100
AcDbEntity
  8
Shape2DView
100
AcDbCircle
 10
104.775000000
 20
-66.675000000
 30
0.000000000
 40
2.000000000
  0
CIRCLE
  5
A93
330
A02
100
AcDbEntity
  8
Shape2DView
100
AcDbCircle
 10
99.695000000
 20
-66.675000000
 30
0.000000000
 40
0.900000000
  0
CIRCLE
  5
A94
330
A02
100
AcDbEntity
  8
Shape2DView
100
AcDbCircle
 10
90.805000000
 20
-66.675000000
 30
0.000000000
 40
0.900000000
  0
CIRCLE
  5
A95
330
A02
100
AcDbEntity
  8
Shape2DView
100
AcDbCircle
 10
85.725000000
 20
-66.675000000
 30
0.000000000
 40
2.000000000
  0
CIRCLE
  5
A96
330
A02
100
AcDbEntity
  8
Shape2DView
100
AcDbCircle
 10
80.645000000
 20
-66.675000000
 30
0.000000000
 40
0.900000000
  0
CIRCLE
  5
A97
330
A02
100
AcDbEntity
  8
Shape2DView
100
AcDbCircle
 10
71.755000000
 20
-66.675000000
 30
0.000000000
 40
0.900000000
  0
CIRCLE
  5
A98
330
A02
100
AcDbEntity
  8
Shape2DView
100
AcDbCircle
 10
66.675000000
 20
-66.675000000
 30
0.000000000
 40
2.000000000
  0
CIRCLE
  5
A99
330
A02
100
AcDbEntity
  8
Shape2DView
100
AcDbCircle
 10
61.595000000
 20
-66.675000000
 30
0.000000000
 40
0.900000000
  0
CIRCLE
  5
A9A
330
A02
100
AcDbEntity
  8
Shape2DView
100
AcDbCircle
 10
52.705000000
 20
-66.675000000
 30
0.000000000
 40
0.900000000
  0
CIRCLE
  5
A9B
330
A02
100
AcDbEntity
  8
Shape2DView
100
AcDbCircle
 10
47.625000000
 20
-66.675000000
 30
0.000000000
 40
2.000000000
  0
CIRCLE
  5
A9C
330
A02
100
AcDbEntity
  8
Shape2DView
100
AcDbCircle
 10
42.545000000
 20
-66.675000000
 30
0.000000000
 40
0.900000000
  0
CIRCLE
  5
A9D
330
A02
100
AcDbEntity
  8
Shape2DView
100
AcDbCircle
 10
24.130000000
 20
-66.675000000
 30
0.000000000
 40
0.900000000
  0
CIRCLE
  5
A9E
330
A02
100
AcDbEntity
  8
Shape2DView
100
AcDbCircle
 10
19.050000000
 20
-66.675000000
 30
0.000000000
 40
2.000000000
  0
CIRCLE
  5
A9F
330
A02
100
AcDbEntity
  8
Shape2DView
100
AcDbCircle
 10
13.970000000
 20
-66.675000000
 30
0.000000000
 40
0.900000000
  0
CIRCLE
  5
AA0
330
A02
100
AcDbEntity
  8
Shape2DView
100
AcDbCircle
 10
30.956250000
 20
-59.690000000
 30
0.000000000
 40
1.700000000
  0
CIRCLE
  5
AA1
330
A02
100
AcDbEntity
  8
Shape2DView
100
AcDbCircle
 10
7.143750000
 20
-59.690000000
 30
0.000000000
 40
1.700000000
  0
CIRCLE
  5
AA2
330
A02
100
AcDbEntity
  8
Shape2DView
100
AcDbCircle
 10
252.412500000
 20
-47.625000000
 30
0.000000000
 40
2.000000000
  0
ARC
  5
AA3
330
A02
100
AcDbEntity
  8
Shape2DView
100
AcDbCircle
 10
276.225000000
 20
-40.640000000
 30
0.000000000
 40
1.700000000
100
AcDbArc
 50
154.678763221
 51
0.000000000
  0
ARC
  5
AA4
330
A02
100
AcDbEntity
  8
Shape2DView
100
AcDbCircle
 10
276.225000000
 20
-40.640000000
 30
0.000000000
 40
1.700000000
100
AcDbArc
 50
0.000000000
 51
111.626016247
  0
ARC
  5
AA5
330
A02
100
AcDbEntity
  8
Shape2DView
100
AcDbCircle
 10
273.843750000
 20
-38.100000000
 30
0.000000000
 40
2.000000000
100
AcDbArc
 50
-28.674440000
 51
0.000000000
  0
ARC
  5
AA6
330
A02
100
AcDbEntity
  8
Shape2DView
100
AcDbCircle
 10
273.843750000
 20
-38.100000000
 30
0.000000000
 40
2.000000000
100
AcDbArc
 50
0.000000000
 51
-65.020780532
  0
CIRCLE
  5
AA7
330
A02
100
AcDbEntity
  8
Shape2DView
100
AcDbCircle
 10
278.923750000
 20
-38.100000000
 30
0.000000000
 40
0.900000000
  0
CIRCLE
  5
AA8
330
A02
100
AcDbEntity
  8
Shape2DView
100
AcDbCircle
 10
268.763750000
 20
-38.100000000
 30
0.000000000
 40
0.900000000
  0
CIRCLE
  5
AA9
330
A02
100
AcDbEntity
  8
Shape2DView
100
AcDbCircle
 10
252.412500000
 20
-40.640000000
 30
0.000000000
 40
1.700000000
  0
CIRCLE
  5
AAA
330
A02
100
AcDbEntity
  8
Shape2DView
100
AcDbCircle
 10
247.332500000
 20
-47.625000000
 30
0.000000000
 40
0.900000000
  0
CIRCLE
  5
AAB
330
A02
100
AcDbEntity
  8
Shape2DView
100
AcDbCircle
 10
238.442500000
 20
-47.625000000
 30
0.000000000
 40
0.900000000
  0
CIRCLE
  5
AAC
330
A02
100
AcDbEntity
  8
Shape2DView
100
AcDbCircle
 10
233.362500000
 20
-47.625000000
 30
0.000000000
 40
2.000000000
  0
CIRCLE
  5
AAD
330
A02
100
AcDbEntity
  8
Shape2DView
100
AcDbCircle
 10
228.282500000
 20
-47.625000000
 30
0.000000000
 40
0.900000000
  0
CIRCLE
  5
AAE
330
A02
100
AcDbEntity
  8
Shape2DView
100
AcDbCircle
 10
219.392500000
 20
-47.625000000
 30
0.000000000
 40
0.900000000
  0
CIRCLE
  5
AAF
330
A02
100
AcDbEntity
  8
Shape2DView
100
AcDbCircle
 10
214.312500000
 20
-47.625000000
 30
0.000000000
 40
2.000000000
  0
CIRCLE
  5
AB0
330
A02
100
AcDbEntity
  8
Shape2DView
100
AcDbCircle
 10
276.542500000
 20
-28.575000000
 30
0.000000000
 40
0.900000000
  0
CIRCLE
  5
AB1
330
A02
100
AcDbEntity
  8
Shape2DView
100
AcDbCircle
 10
271.462500000
 20
-28.575000000
 30
0.000000000
 40
2.000000000
  0
CIRCLE
  5
AB2
330
A02
100
AcDbEntity
  8
Shape2DView
100
AcDbCircle
 10
282.098750000
 20
-26.193750000
 30
0.000000000
 40
2.000000000
  0
ARC
  5
AB3
330
A02
100
AcDbEntity
  8
Shape2DView
100
AcDbCircle
 10
266.858750000
 20
-26.193750000
 30
0.000000000
 40
1.700000000
100
AcDbArc
 50
-86.361354307
 51
0.000000000
  0
ARC
  5
AB4
330
A02
100
AcDbEntity
  8
Shape2DView
100
AcDbCircle
 10
266.858750000
 20
-26.193750000
 30
0.000000000
 40
1.700000000
100
AcDbArc
 50
0.000000000
 51
-116.258510641
  0
ARC
  5
AB5
330
A02
100
AcDbEntity
  8
Shape2DView
100
AcDbCircle
 10
266.382500000
 20
-28.575000000
 30
0.000000000
 40
0.900000000
100
AcDbArc
 50
107.849583285
 51
0.000000000
  0
ARC
  5
AB6
330
A02
100
AcDbEntity
  8
Shape2DView
100
AcDbCircle
 10
266.382500000
 20
-28.575000000
 30
0.000000000
 40
0.900000000
100
AcDbArc
 50
0.000000000
 51
49.530551768
  0
CIRCLE
  5
AB7
330
A02
100
AcDbEntity
  8
Shape2DView
100
AcDbCircle
 10
260.350000000
 20
-28.500000000
 30
0.000000000
 40
3.500000000
  0
CIRCLE
  5
AB8
330
A02
100
AcDbEntity
  8
Shape2DView
100
AcDbCircle
 10
252.730000000
 20
-28.575000000
 30
0.000000000
 40
0.900000000
  0
CIRCLE
  5
AB9
330
A02
100
AcDbEntity
  8
Shape2DView
100
AcDbCircle
 10
247.650000000
 20
-28.575000000
 30
0.000000000
 40
2.000000000
  0
CIRCLE
  5
ABA
330
A02
100
AcDbEntity
  8
Shape2DView
100
AcDbCircle
 10
242.570000000
 20
-28.575000000
 30
0.000000000
 40
0.900000000
  0
CIRCLE
  5
ABB
330
A02
100
AcDbEntity
  8
Shape2DView
100
AcDbCircle
 10
233.680000000
 20
-28.575000000
 30
0.000000000
 40
0.900000000
  0
CIRCLE
  5
ABC
330
A02
100
AcDbEntity
  8
Shape2DView
100
AcDbCircle
 10
228.600000000
 20
-28.575000000
 30
0.000000000
 40
2.000000000
  0
CIRCLE
  5
ABD
330
A02
100
AcDbEntity
  8
Shape2DView
100
AcDbCircle
 10
223.520000000
 20
-28.575000000
 30
0.000000000
 40
0.900000000
  0
CIRCLE
  5
ABE
330
A02
100
AcDbEntity
  8
Shape2DView
100
AcDbCircle
 10
214.630000000
 20
-28.575000000
 30
0.000000000
 40
0.900000000
  0
CIRCLE
  5
ABF
330
A02
100
AcDbEntity
  8
Shape2DView
100
AcDbCircle
 10
209.232500000
 20
-47.625000000
 30
0.000000000
 40
0.900000000
  0
CIRCLE
  5
AC0
330
A02
100
AcDbEntity
  8
Shape2DView
100
AcDbCircle
 10
200.342500000
 20
-47.625000000
 30
0.000000000
 40
0.900000000
  0
CIRCLE
  5
AC1
330
A02
100
AcDbEntity
  8
Shape2DView
100
AcDbCircle
 10
195.262500000
 20
-47.625000000
 30
0.000000000
 40
2.000000000
  0
CIRCLE
  5
AC2
330
A02
100
AcDbEntity
  8
Shape2DView
100
AcDbCircle
 10
190.182500000
 20
-47.625000000
 30
0.000000000
 40
0.900000000
  0
CIRCLE
  5
AC3
330
A02
100
AcDbEntity
  8
Shape2DView
100
AcDbCircle
 10
181.292500000
 20
-47.625000000
 30
0.000000000
 40
0.900000000
  0
CIRCLE
  5
AC4
330
A02
100
AcDbEntity
  8
Shape2DView
100
AcDbCircle
 10
176.212500000
 20
-47.625000000
 30
0.000000000
 40
2.000000000
  0
CIRCLE
  5
AC5
330
A02
100
AcDbEntity
  8
Shape2DView
100
AcDbCircle
 10
171.132500000
 20
-47.625000000
 30
0.000000000
 40
0.900000000
  0
CIRCLE
  5
AC6
330
A02
100
AcDbEntity
  8
Shape2DView
100
AcDbCircle
 10
162.242500000
 20
-47.625000000
 30
0.000000000
 40
0.900000000
  0
CIRCLE
  5
AC7
330
A02
100
AcDbEntity
  8
Shape2DView
100
AcDbCircle
 10
157.162500000
 20
-47.625000000
 30
0.000000000
 40
2.000000000
  0
CIRCLE
  5
AC8
330
A02
100
AcDbEntity
  8
Shape2DView
100
AcDbCircle
 10
152.082500000
 20
-47.625000000
 30
0.000000000
 40
0.900000000
  0
CIRCLE
  5
AC9
330
A02
100
AcDbEntity
  8
Shape2DView
100
AcDbCircle
 10
209.550000000
 20
-28.575000000
 30
0.000000000
 40
2.000000000
  0
CIRCLE
  5
ACA
330
A02
100
AcDbEntity
  8
Shape2DView
100
AcDbCircle
 10
204.470000000
 20
-28.575000000
 30
0.000000000
 40
0.900000000
  0
CIRCLE
  5
ACB
330
A02
100
AcDbEntity
  8
Shape2DView
100
AcDbCircle
 10
195.580000000
 20
-28.575000000
 30
0.000000000
 40
0.900000000
  0
CIRCLE
  5
ACC
330
A02
100
AcDbEntity
  8
Shape2DView
100
AcDbCircle
 10
190.500000000
 20
-28.575000000
 30
0.000000000
 40
2.000000000
  0
CIRCLE
  5
ACD
330
A02
100
AcDbEntity
  8
Shape2DView
100
AcDbCircle
 10
185.420000000
 20
-28.575000000
 30
0.000000000
 40
0.900000000
  0
CIRCLE
  5
ACE
330
A02
100
AcDbEntity
  8
Shape2DView
100
AcDbCircle
 10
176.530000000
 20
-28.575000000
 30
0.000000000
 40
0.900000000
  0
CIRCLE
  5
ACF
330
A02
100
AcDbEntity
  8
Shape2DView
100
AcDbCircle
 10
171.450000000
 20
-28.575000000
 30
0.000000000
 40
2.000000000
  0
CIRCLE
  5
AD0
330
A02
100
AcDbEntity
  8
Shape2DView
100
AcDbCircle
 10
166.370000000
 20
-28.575000000
 30
0.000000000
 40
0.900000000
  0
CIRCLE
  5
AD1
330
A02
100
AcDbEntity
  8
Shape2DView
100
AcDbCircle
 10
157.480000000
 20
-28.575000000
 30
0.000000000
 40
0.900000000
  0
CIRCLE
  5
AD2
330
A02
100
AcDbEntity
  8
Shape2DView
100
AcDbCircle
 10
152.400000000
 20
-28.575000000
 30
0.000000000
 40
2.000000000
  0
CIRCLE
  5
AD3
330
A02
100
AcDbEntity
  8
Shape2DView
100
AcDbCircle
 10
147.320000000
 20
-28.575000000
 30
0.000000000
 40
0.900000000
  0
CIRCLE
  5
AD4
330
A02
100
AcDbEntity
  8
Shape2DView
100
AcDbCircle
 10
278.606250000
 20
-17.780000000
 30
0.000000000
 40
2.000000000
  0
CIRCLE
  5
AD5
330
A02
100
AcDbEntity
  8
Shape2DView
100
AcDbCircle
 10
254.793750000
 20
-17.780000000
 30
0.000000000
 40
2.000000000
  0
CIRCLE
  5
AD6
330
A02
100
AcDbEntity
  8
Shape2DView
100
AcDbCircle
 10
281.305000000
 20
-9.525000000
 30
0.000000000
 40
0.900000000
  0
CIRCLE
  5
AD7
330
A02
100
AcDbEntity
  8
Shape2DView
100
AcDbCircle
 10
276.225000000
 20
-9.525000000
 30
0.000000000
 40
2.000000000
  0
ARC
  5
AD8
330
A02
100
AcDbEntity
  8
Shape2DView
100
AcDbCircle
 10
271.780000000
 20
-9.525000000
 30
0.000000000
 40
0.900000000
100
AcDbArc
 50
0.000000000
 51
110.657310837
  0
ARC
  5
AD9
330
A02
100
AcDbEntity
  8
Shape2DView
100
AcDbCircle
 10
271.145000000
 20
-9.525000000
 30
0.000000000
 40
0.900000000
100
AcDbArc
 50
69.342689163
 51
-69.342689162
  0
ARC
  5
ADA
330
A02
100
AcDbEntity
  8
Shape2DView
100
AcDbCircle
 10
271.780000000
 20
-9.525000000
 30
0.000000000
 40
0.900000000
100
AcDbArc
 50
-110.657310838
 51
0.000000000
  0
CIRCLE
  5
ADB
330
A02
100
AcDbEntity
  8
Shape2DView
100
AcDbCircle
 10
266.700000000
 20
-9.525000000
 30
0.000000000
 40
2.000000000
  0
ARC
  5
ADC
330
A02
100
AcDbEntity
  8
Shape2DView
100
AcDbCircle
 10
262.255000000
 20
-9.525000000
 30
0.000000000
 40
0.900000000
100
AcDbArc
 50
-110.657310838
 51
0.000000000
  0
ARC
  5
ADD
330
A02
100
AcDbEntity
  8
Shape2DView
100
AcDbCircle
 10
262.255000000
 20
-9.525000000
 30
0.000000000
 40
0.900000000
100
AcDbArc
 50
0.000000000
 51
110.657310837
  0
ARC
  5
ADE
330
A02
100
AcDbEntity
  8
Shape2DView
100
AcDbCircle
 10
261.620000000
 20
-9.525000000
 30
0.000000000
 40
0.900000000
100
AcDbArc
 50
69.342689163
 51
-69.342689162
  0
CIRCLE
  5
ADF
330
A02
100
AcDbEntity
  8
Shape2DView
100
AcDbCircle
 10
257.175000000
 20
-9.525000000
 30
0.000000000
 40
2.000000000
  0
CIRCLE
  5
AE0
330
A02
100
AcDbEntity
  8
Shape2DView
100
AcDbCircle
 10
252.095000000
 20
-9.525000000
 30
0.000000000
 40
0.900000000
  0
CIRCLE
  5
AE1
330
A02
100
AcDbEntity
  8
Shape2DView
100
AcDbCircle
 10
278.606250000
 20
-2.540000000
 30
0.000000000
 40
1.700000000
  0
CIRCLE
  5
AE2
330
A02
100
AcDbEntity
  8
Shape2DView
100
AcDbCircle
 10
254.793750000
 20
-2.540000000
 30
0.000000000
 40
1.700000000
  0
CIRCLE
  5
AE3
330
A02
100
AcDbEntity
  8
Shape2DView
100
AcDbCircle
 10
243.205000000
 20
-9.525000000
 30
0.000000000
 40
0.900000000
  0
CIRCLE
  5
AE4
330
A02
100
AcDbEntity
  8
Shape2DView
100
AcDbCircle
 10
238.125000000
 20
-9.525000000
 30
0.000000000
 40
2.000000000
  0
CIRCLE
  5
AE5
330
A02
100
AcDbEntity
  8
Shape2DView
100
AcDbCircle
 10
233.045000000
 20
-9.525000000
 30
0.000000000
 40
0.900000000
  0
CIRCLE
  5
AE6
330
A02
100
AcDbEntity
  8
Shape2DView
100
AcDbCircle
 10
224.155000000
 20
-9.525000000
 30
0.000000000
 40
0.900000000
  0
CIRCLE
  5
AE7
330
A02
100
AcDbEntity
  8
Shape2DView
100
AcDbCircle
 10
219.075000000
 20
-9.525000000
 30
0.000000000
 40
2.000000000
  0
CIRCLE
  5
AE8
330
A02
100
AcDbEntity
  8
Shape2DView
100
AcDbCircle
 10
213.995000000
 20
-9.525000000
 30
0.000000000
 40
0.900000000
  0
CIRCLE
  5
AE9
330
A02
100
AcDbEntity
  8
Shape2DView
100
AcDbCircle
 10
205.105000000
 20
-9.525000000
 30
0.000000000
 40
0.900000000
  0
CIRCLE
  5
AEA
330
A02
100
AcDbEntity
  8
Shape2DView
100
AcDbCircle
 10
200.025000000
 20
-9.525000000
 30
0.000000000
 40
2.000000000
  0
CIRCLE
  5
AEB
330
A02
100
AcDbEntity
  8
Shape2DView
100
AcDbCircle
 10
194.945000000
 20
-9.525000000
 30
0.000000000
 40
0.900000000
  0
CIRCLE
  5
AEC
330
A02
100
AcDbEntity
  8
Shape2DView
100
AcDbCircle
 10
186.055000000
 20
-9.525000000
 30
0.000000000
 40
0.900000000
  0
CIRCLE
  5
AED
330
A02
100
AcDbEntity
  8
Shape2DView
100
AcDbCircle
 10
180.975000000
 20
-9.525000000
 30
0.000000000
 40
2.000000000
  0
CIRCLE
  5
AEE
330
A02
100
AcDbEntity
  8
Shape2DView
100
AcDbCircle
 10
175.895000000
 20
-9.525000000
 30
0.000000000
 40
0.900000000
  0
CIRCLE
  5
AEF
330
A02
100
AcDbEntity
  8
Shape2DView
100
AcDbCircle
 10
167.005000000
 20
-9.525000000
 30
0.000000000
 40
0.900000000
  0
CIRCLE
  5
AF0
330
A02
100
AcDbEntity
  8
Shape2DView
100
AcDbCircle
 10
161.925000000
 20
-9.525000000
 30
0.000000000
 40
2.000000000
  0
CIRCLE
  5
AF1
330
A02
100
AcDbEntity
  8
Shape2DView
100
AcDbCircle
 10
156.845000000
 20
-9.525000000
 30
0.000000000
 40
0.900000000
  0
CIRCLE
  5
AF2
330
A02
100
AcDbEntity
  8
Shape2DView
100
AcDbCircle
 10
147.955000000
 20
-9.525000000
 30
0.000000000
 40
0.900000000
  0
CIRCLE
  5
AF3
330
A02
100
AcDbEntity
  8
Shape2DView
100
AcDbCircle
 10
143.192500000
 20
-47.625000000
 30
0.000000000
 40
0.900000000
  0
CIRCLE
  5
AF4
330
A02
100
AcDbEntity
  8
Shape2DView
100
AcDbCircle
 10
138.112500000
 20
-47.625000000
 30
0.000000000
 40
2.000000000
  0
CIRCLE
  5
AF5
330
A02
100
AcDbEntity
  8
Shape2DView
100
AcDbCircle
 10
133.032500000
 20
-47.625000000
 30
0.000000000
 40
0.900000000
  0
CIRCLE
  5
AF6
330
A02
100
AcDbEntity
  8
Shape2DView
100
AcDbCircle
 10
124.142500000
 20
-47.625000000
 30
0.000000000
 40
0.900000000
  0
CIRCLE
  5
AF7
330
A02
100
AcDbEntity
  8
Shape2DView
100
AcDbCircle
 10
119.062500000
 20
-47.625000000
 30
0.000000000
 40
2.000000000
  0
CIRCLE
  5
AF8
330
A02
100
AcDbEntity
  8
Shape2DView
100
AcDbCircle
 10
113.982500000
 20
-47.625000000
 30
0.000000000
 40
0.900000000
  0
CIRCLE
  5
AF9
330
A02
100
AcDbEntity
  8
Shape2DView
100
AcDbCircle
 10
105.092500000
 20
-47.625000000
 30
0.000000000
 40
0.900000000
  0
CIRCLE
  5
AFA
330
A02
100
AcDbEntity
  8
Shape2DView
100
AcDbCircle
 10
100.012500000
 20
-47.625000000
 30
0.000000000
 40
2.000000000
  0
CIRCLE
  5
AFB
330
A02
100
AcDbEntity
  8
Shape2DView
100
AcDbCircle
 10
94.932500000
 20
-47.625000000
 30
0.000000000
 40
0.900000000
  0
CIRCLE
  5
AFC
330
A02
100
AcDbEntity
  8
Shape2DView
100
AcDbCircle
 10
86.042500000
 20
-47.625000000
 30
0.000000000
 40
0.900000000
  0
CIRCLE
  5
AFD
330
A02
100
AcDbEntity
  8
Shape2DView
100
AcDbCircle
 10
80.962500000
 20
-47.625000000
 30
0.000000000
 40
2.000000000
  0
CIRCLE
  5
AFE
330
A02
100
AcDbEntity
  8
Shape2DView
100
AcDbCircle
 10
75.882500000
 20
-47.625000000
 30
0.000000000
 40
0.900000000
  0
CIRCLE
  5
AFF
330
A02
100
AcDbEntity
  8
Shape2DView
100
AcDbCircle
 10
138.430000000
 20
-28.575000000
 30
0.000000000
 40
0.900000000
  0
CIRCLE
  5
B00
330
A02
100
AcDbEntity
  8
Shape2DView
100
AcDbCircle
 10
133.350000000
 20
-28.575000000
 30
0.000000000
 40
2.000000000
  0
CIRCLE
  5
B01
330
A02
100
AcDbEntity
  8
Shape2DView
100
AcDbCircle
 10
128.270000000
 20
-28.575000000
 30
0.000000000
 40
0.900000000
  0
CIRCLE
  5
B02
330
A02
100
AcDbEntity
  8
Shape2DView
100
AcDbCircle
 10
119.380000000
 20
-28.575000000
 30
0.000000000
 40
0.900000000
  0
CIRCLE
  5
B03
330
A02
100
AcDbEntity
  8
Shape2DView
100
AcDbCircle
 10
114.300000000
 20
-28.575000000
 30
0.000000000
 40
2.000000000
  0
CIRCLE
  5
B04
330
A02
100
AcDbEntity
  8
Shape2DView
100
AcDbCircle
 10
109.220000000
 20
-28.575000000
 30
0.000000000
 40
0.900000000
  0
CIRCLE
  5
B05
330
A02
100
AcDbEntity
  8
Shape2DView
100
AcDbCircle
 10
100.330000000
 20
-28.575000000
 30
0.000000000
 40
0.900000000
  0
CIRCLE
  5
B06
330
A02
100
AcDbEntity
  8
Shape2DView
100
AcDbCircle
 10
95.250000000
 20
-28.575000000
 30
0.000000000
 40
2.000000000
  0
CIRCLE
  5
B07
330
A02
100
AcDbEntity
  8
Shape2DView
100
AcDbCircle
 10
90.170000000
 20
-28.575000000
 30
0.000000000
 40
0.900000000
  0
CIRCLE
  5
B08
330
A02
100
AcDbEntity
  8
Shape2DView
100
AcDbCircle
 10
81.280000000
 20
-28.575000000
 30
0.000000000
 40
0.900000000
  0
CIRCLE
  5
B09
330
A02
100
AcDbEntity
  8
Shape2DView
100
AcDbCircle
 10
76.200000000
 20
-28.575000000
 30
0.000000000
 40
2.000000000
  0
CIRCLE
  5
B0A
330
A02
100
AcDbEntity
  8
Shape2DView
100
AcDbCircle
 10
66.992500000
 20
-47.625000000
 30
0.000000000
 40
0.900000000
  0
CIRCLE
  5
B0B
330
A02
100
AcDbEntity
  8
Shape2DView
100
AcDbCircle
 10
61.912500000
 20
-47.625000000
 30
0.000000000
 40
2.000000000
  0
CIRCLE
  5
B0C
330
A02
100
AcDbEntity
  8
Shape2DView
100
AcDbCircle
 10
56.832500000
 20
-47.625000000
 30
0.000000000
 40
0.900000000
  0
CIRCLE
  5
B0D
330
A02
100
AcDbEntity
  8
Shape2DView
100
AcDbCircle
 10
47.942500000
 20
-47.625000000
 30
0.000000000
 40
0.900000000
  0
CIRCLE
  5
B0E
330
A02
100
AcDbEntity
  8
Shape2DView
100
AcDbCircle
 10
42.862500000
 20
-47.625000000
 30
0.000000000
 40
2.000000000
  0
CIRCLE
  5
B0F
330
A02
100
AcDbEntity
  8
Shape2DView
100
AcDbCircle
 10
37.782500000
 20
-47.625000000
 30
0.000000000
 40
0.900000000
  0
CIRCLE
  5
B10
330
A02
100
AcDbEntity
  8
Shape2DView
100
AcDbCircle
 10
21.748750000
 20
-47.625000000
 30
0.000000000
 40
0.900000000
  0
CIRCLE
  5
B11
330
A02
100
AcDbEntity
  8
Shape2DView
100
AcDbCircle
 10
16.668750000
 20
-47.625000000
 30
0.000000000
 40
2.000000000
  0
CIRCLE
  5
B12
330
A02
100
AcDbEntity
  8
Shape2DView
100
AcDbCircle
 10
11.588750000
 20
-47.625000000
 30
0.000000000
 40
0.900000000
  0
CIRCLE
  5
B13
330
A02
100
AcDbEntity
  8
Shape2DView
100
AcDbCircle
 10
71.120000000
 20
-28.575000000
 30
0.000000000
 40
0.900000000
  0
CIRCLE
  5
B14
330
A02
100
AcDbEntity
  8
Shape2DView
100
AcDbCircle
 10
62.230000000
 20
-28.575000000
 30
0.000000000
 40
0.900000000
  0
CIRCLE
  5
B15
330
A02
100
AcDbEntity
  8
Shape2DView
100
AcDbCircle
 10
57.150000000
 20
-28.575000000
 30
0.000000000
 40
2.000000000
  0
CIRCLE
  5
B16
330
A02
100
AcDbEntity
  8
Shape2DView
100
AcDbCircle
 10
52.070000000
 20
-28.575000000
 30
0.000000000
 40
0.900000000
  0
CIRCLE
  5
B17
330
A02
100
AcDbEntity
  8
Shape2DView
100
AcDbCircle
 10
43.180000000
 20
-28.575000000
 30
0.000000000
 40
0.900000000
  0
CIRCLE
  5
B18
330
A02
100
AcDbEntity
  8
Shape2DView
100
AcDbCircle
 10
38.100000000
 20
-28.575000000
 30
0.000000000
 40
2.000000000
  0
CIRCLE
  5
B19
330
A02
100
AcDbEntity
  8
Shape2DView
100
AcDbCircle
 10
33.020000000
 20
-28.575000000
 30
0.000000000
 40
0.900000000
  0
CIRCLE
  5
B1A
330
A02
100
AcDbEntity
  8
Shape2DView
100
AcDbCircle
 10
25.500000000
 20
-28.500000000
 30
0.000000000
 40
3.500000000
  0
CIRCLE
  5
B1B
330
A02
100
AcDbEntity
  8
Shape2DView
100
AcDbCircle
 10
19.367500000
 20
-28.575000000
 30
0.000000000
 40
0.900000000
  0
CIRCLE
  5
B1C
330
A02
100
AcDbEntity
  8
Shape2DView
100
AcDbCircle
 10
14.287500000
 20
-28.575000000
 30
0.000000000
 40
2.000000000
  0
CIRCLE
  5
B1D
330
A02
100
AcDbEntity
  8
Shape2DView
100
AcDbCircle
 10
9.207500000
 20
-28.575000000
 30
0.000000000
 40
0.900000000
  0
CIRCLE
  5
B1E
330
A02
100
AcDbEntity
  8
Shape2DView
100
AcDbCircle
 10
142.875000000
 20
-9.525000000
 30
0.000000000
 40
2.000000000
  0
CIRCLE
  5
B1F
330
A02
100
AcDbEntity
  8
Shape2DView
100
AcDbCircle
 10
137.795000000
 20
-9.525000000
 30
0.000000000
 40
0.900000000
  0
CIRCLE
  5
B20
330
A02
100
AcDbEntity
  8
Shape2DView
100
AcDbCircle
 10
128.905000000
 20
-9.525000000
 30
0.000000000
 40
0.900000000
  0
CIRCLE
  5
B21
330
A02
100
AcDbEntity
  8
Shape2DView
100
AcDbCircle
 10
123.825000000
 20
-9.525000000
 30
0.000000000
 40
2.000000000
  0
CIRCLE
  5
B22
330
A02
100
AcDbEntity
  8
Shape2DView
100
AcDbCircle
 10
118.745000000
 20
-9.525000000
 30
0.000000000
 40
0.900000000
  0
CIRCLE
  5
B23
330
A02
100
AcDbEntity
  8
Shape2DView
100
AcDbCircle
 10
109.855000000
 20
-9.525000000
 30
0.000000000
 40
0.900000000
  0
CIRCLE
  5
B24
330
A02
100
AcDbEntity
  8
Shape2DView
100
AcDbCircle
 10
104.775000000
 20
-9.525000000
 30
0.000000000
 40
2.000000000
  0
CIRCLE
  5
B25
330
A02
100
AcDbEntity
  8
Shape2DView
100
AcDbCircle
 10
99.695000000
 20
-9.525000000
 30
0.000000000
 40
0.900000000
  0
CIRCLE
  5
B26
330
A02
100
AcDbEntity
  8
Shape2DView
100
AcDbCircle
 10
90.805000000
 20
-9.525000000
 30
0.000000000
 40
0.900000000
  0
CIRCLE
  5
B27
330
A02
100
AcDbEntity
  8
Shape2DView
100
AcDbCircle
 10
85.725000000
 20
-9.525000000
 30
0.000000000
 40
2.000000000
  0
CIRCLE
  5
B28
330
A02
100
AcDbEntity
  8
Shape2DView
100
AcDbCircle
 10
80.645000000
 20
-9.525000000
 30
0.000000000
 40
0.900000000
  0
CIRCLE
  5
B29
330
A02
100
AcDbEntity
  8
Shape2DView
100
AcDbCircle
 10
71.755000000
 20
-9.525000000
 30
0.000000000
 40
0.900000000
  0
CIRCLE
  5
B2A
330
A02
100
AcDbEntity
  8
Shape2DView
100
AcDbCircle
 10
66.675000000
 20
-9.525000000
 30
0.000000000
 40
2.000000000
  0
CIRCLE
  5
B2B
330
A02
100
AcDbEntity
  8
Shape2DView
100
AcDbCircle
 10
61.595000000
 20
-9.525000000
 30
0.000000000
 40
0.900000000
  0
CIRCLE
  5
B2C
330
A02
100
AcDbEntity
  8
Shape2DView
100
AcDbCircle
 10
52.705000000
 20
-9.525000000
 30
0.000000000
 40
0.900000000
  0
CIRCLE
  5
B2D
330
A02
100
AcDbEntity
  8
Shape2DView
100
AcDbCircle
 10
47.625000000
 20
-9.525000000
 30
0.000000000
 40
2.000000000
  0
CIRCLE
  5
B2E
330
A02
100
AcDbEntity
  8
Shape2DView
100
AcDbCircle
 10
42.545000000
 20
-9.525000000
 30
0.000000000
 40
0.900000000
  0
CIRCLE
  5
B2F
330
A02
100
AcDbEntity
  8
Shape2DView
100
AcDbCircle
 10
33.655000000
 20
-9.525000000
 30
0.000000000
 40
0.900000000
  0
CIRCLE
  5
B30
330
A02
100
AcDbEntity
  8
Shape2DView
100
AcDbCircle
 10
28.575000000
 20
-9.525000000
 30
0.000000000
 40
2.000000000
  0
CIRCLE
  5
B31
330
A02
100
AcDbEntity
  8
Shape2DView
100
AcDbCircle
 10
23.495000000
 20
-9.525000000
 30
0.000000000
 40
0.900000000
  0
CIRCLE
  5
B32
330
A02
100
AcDbEntity
  8
Shape2DView
100
AcDbCircle
 10
14.605000000
 20
-9.525000000
 30
0.000000000
 40
0.900000000
  0
CIRCLE
  5
B33
330
A02
100
AcDbEntity
  8
Shape2DView
100
AcDbCircle
 10
9.525000000
 20
-9.525000000
 30
0.000000000
 40
2.000000000
  0
CIRCLE
  5
B34
330
A02
100
AcDbEntity
  8
Shape2DView
100
AcDbCircle
 10
4.445000000
 20
-9.525000000
 30
0.000000000
 40
0.900000000
  0
ENDSEC
  0
SECTION
  2
OBJECTS
  0
DICTIONARY
  5
F000
330
0
100
AcDbDictionary
  3
ACAD_GROUP
350
F001
  0
DICTIONARY
  5
F001
330
F000
100
AcDbDictionary
  0
ENDSEC
  0
EOF